<svg width="24" height="20" viewBox="0 0 21 20" fill="none" xmlns="http://www.w3.org/2000/svg">
<g id="message 2">
<g id="Group">
<path id="Vector" d="M8.34668 1.3126C7.26386 1.47276 6.41074 1.85557 5.79961 2.46885C5.31562 2.94932 5.00801 3.49619 4.80293 4.24619L4.69219 4.65635L4.32305 4.74619C3.44941 4.96104 2.91211 5.23057 2.3666 5.73838C1.77187 6.28525 1.38223 7.02744 1.19766 7.94932C1.13613 8.25791 1.12793 8.61338 1.12793 10.9376C1.12793 13.8868 1.13613 13.9884 1.41914 14.8048C1.72266 15.6759 2.20664 16.2462 2.95312 16.6173C3.58066 16.9259 4.2082 17.0548 5.39355 17.1134C5.86933 17.1368 6.27539 17.1642 6.3041 17.172C6.32871 17.1759 6.62812 17.5313 6.96445 17.9571C7.63711 18.8126 7.81347 18.9649 8.28105 19.1056C8.58047 19.1915 8.83886 19.1993 9.12597 19.1251C9.63867 18.9962 9.82734 18.836 10.5656 17.9181L11.1686 17.1602L11.7633 17.1329C13.2562 17.0665 14.2652 16.7306 15.0199 16.0587C15.6639 15.4845 16.033 14.8126 16.2586 13.8204C16.2791 13.7423 16.316 13.7071 16.398 13.6876C17.3701 13.4884 18.1084 13.1368 18.658 12.6134C19.2937 12.0118 19.6875 11.1759 19.831 10.129C19.9213 9.48447 19.9213 5.55479 19.831 4.91025C19.5398 2.79697 18.2232 1.55088 15.9961 1.28916C15.4383 1.22666 8.81425 1.24229 8.34668 1.3126ZM16.0166 2.55869C16.7754 2.67588 17.2676 2.89072 17.6982 3.30088C18.1781 3.7501 18.4365 4.33213 18.5391 5.17588C18.5924 5.64463 18.5924 9.34775 18.535 9.82822C18.4775 10.3478 18.3627 10.7462 18.174 11.1134C17.9689 11.5001 17.7146 11.7813 17.3578 12.004C17.0912 12.172 16.599 12.3829 16.476 12.3829C16.4227 12.3829 16.4103 12.1173 16.3939 10.379C16.3775 8.83994 16.3611 8.30478 16.3119 8.0626C16.0576 6.754 15.4957 5.86728 14.5482 5.28525C14.0889 5.0001 13.6049 4.82041 12.9199 4.67588C12.5467 4.59775 12.3826 4.59385 9.30234 4.58213C7.52226 4.57432 6.07031 4.55088 6.07031 4.53525C6.07031 4.45322 6.24668 4.02354 6.36152 3.83213C6.77578 3.12901 7.41972 2.73838 8.46562 2.55869C8.9209 2.48057 15.5121 2.48057 16.0166 2.55869ZM12.2144 5.86338C13.1414 5.95713 13.7115 6.18369 14.1955 6.64072C14.5646 6.99228 14.7902 7.379 14.9338 7.9376C15.0322 8.30088 15.0322 8.30478 15.0322 10.8009C15.0322 13.5079 15.0281 13.5587 14.8025 14.1524C14.4949 14.9649 13.8428 15.5118 12.9076 15.7384C12.5549 15.8282 11.8289 15.8985 11.3121 15.8985C10.582 15.8985 10.4139 16.0157 9.58945 17.0548C8.91679 17.9102 8.81836 17.9923 8.61738 17.8868C8.55996 17.8556 8.24004 17.4884 7.90781 17.0704C7.02187 15.9454 6.98086 15.922 5.74219 15.8829C5.30332 15.8712 4.76601 15.836 4.54863 15.8048C3.20332 15.6095 2.6373 14.9923 2.46094 13.5313C2.42812 13.2657 2.41992 12.379 2.43223 10.7228C2.44453 8.64853 2.45684 8.26182 2.51426 8.03916C2.74394 7.14463 3.19512 6.54697 3.90469 6.20713C4.24101 6.04697 4.80293 5.89853 5.22949 5.86338C5.79961 5.8126 11.7469 5.8126 12.2144 5.86338Z" fill="white"/>
<path id="Vector_2" d="M5.64372 10.4102C5.20075 10.5587 4.96286 11.0899 5.14743 11.5157C5.43864 12.1759 6.45583 12.1759 6.74704 11.5157C7.03825 10.8477 6.3615 10.1642 5.64372 10.4102Z" fill="white"/>
<path id="Vector_3" d="M8.46971 10.3946C8.27283 10.4493 8.01444 10.6837 7.93651 10.879C7.68631 11.5001 8.24822 12.1407 8.92498 11.9962C9.32694 11.9102 9.59764 11.586 9.59764 11.1915C9.59764 10.6212 9.04803 10.2345 8.46971 10.3946Z" fill="white"/>
<path id="Vector_4" d="M11.1768 10.4454C10.9348 10.5509 10.861 10.6251 10.7502 10.8595C10.6354 11.1017 10.6436 11.3087 10.7708 11.5587C10.9635 11.9259 11.3655 12.0938 11.7797 11.9767C12.5344 11.7696 12.6329 10.7892 11.9315 10.4532C11.6608 10.3282 11.4475 10.3243 11.1768 10.4454Z" fill="white"/>
</g>
</g>
</svg>
